<svg width="1000" height="1000" viewBox="0 0 1000 1000" fill="none" xmlns="http://www.w3.org/2000/svg">
<path d="M197 449.5C171.005 297.499 399.498 152 573.498 123C391.498 184.5 301.498 302 305.498 391.5C310.186 496.395 439.5 501 511.5 493C336.502 578.5 209.398 522 197 449.5Z" fill="#00A05C"/>
<ellipse cx="673.308" cy="217.811" rx="79.8212" ry="70.3474" transform="rotate(-19.419 673.308 217.811)" fill="#F15923"/>
<path d="M639 509.5C645.4 382.3 486.333 389.5 406 409C571 342.667 876.113 309.663 789 546.5C725 720.5 377.5 886 212 875C302.498 853 631 668.5 639 509.5Z" fill="#0067AC"/>
</svg>
