<svg width="606" height="335" viewBox="0 0 606 335" fill="none" xmlns="http://www.w3.org/2000/svg">
<rect y="67" width="6" height="31" rx="1" fill="#27A1C3"/>
<rect y="102" width="6" height="31" rx="1" fill="#27A1C3"/>
<g filter="url(#filter0_ii_407_62)">
<rect x="2" y="5" width="604" height="330" rx="11" fill="#47BCE0"/>
</g>
<path d="M526 2C526 0.895431 526.895 0 528 0H596C601.523 0 606 4.47715 606 10V16H526V2Z" fill="#149ABE"/>
<g filter="url(#filter1_i_407_62)">
<path d="M502 10C502 7.23858 504.239 5 507 5H595C601.075 5 606 9.92487 606 16V38C606 44.0751 601.075 49 595 49H502V10Z" fill="#48BCDF"/>
</g>
<line x1="526.5" y1="5" x2="526.5" y2="49" stroke="black" stroke-opacity="0.25"/>
<line x1="501.5" y1="5" x2="501.5" y2="49" stroke="black" stroke-opacity="0.25"/>
<path d="M82 2C82 0.895431 81.1046 0 80 0H12C6.47715 0 2 4.47715 2 10V16H82V2Z" fill="#149ABE"/>
<g filter="url(#filter2_i_407_62)">
<path d="M106 10C106 7.23858 103.761 5 101 5H13C6.92487 5 2 9.92487 2 16V38C2 44.0751 6.92487 49 13 49H106V10Z" fill="#48BCDF"/>
</g>
<line y1="-0.5" x2="44" y2="-0.5" transform="matrix(0 1 1 0 82 5)" stroke="black" stroke-opacity="0.25"/>
<rect x="23" y="19" width="6" height="16" rx="2" fill="#425A6C"/>
<rect x="39" y="19" width="6" height="16" rx="2" fill="#425A6C"/>
<rect x="55" y="19" width="6" height="16" rx="2" fill="#425A6C"/>
<g filter="url(#filter3_i_407_62)">
<circle cx="525.5" cy="262.5" r="24.5" fill="#1D1D1D"/>
</g>
<circle cx="525.5" cy="262.5" r="5.5" fill="#5A5A5A"/>
<g filter="url(#filter4_i_407_62)">
<circle cx="566.5" cy="262.5" r="3.5" fill="#5A5A5A"/>
</g>
<circle cx="1.5" cy="1.5" r="1.5" transform="matrix(1 0 0 -1 524 264)" fill="#212121"/>
<defs>
<filter id="filter0_ii_407_62" x="-1" y="2" width="609" height="333" filterUnits="userSpaceOnUse" color-interpolation-filters="sRGB">
<feFlood flood-opacity="0" result="BackgroundImageFix"/>
<feBlend mode="normal" in="SourceGraphic" in2="BackgroundImageFix" result="shape"/>
<feColorMatrix in="SourceAlpha" type="matrix" values="0 0 0 0 0 0 0 0 0 0 0 0 0 0 0 0 0 0 127 0" result="hardAlpha"/>
<feOffset dx="-3" dy="-3"/>
<feGaussianBlur stdDeviation="2.5"/>
<feComposite in2="hardAlpha" operator="arithmetic" k2="-1" k3="1"/>
<feColorMatrix type="matrix" values="0 0 0 0 1 0 0 0 0 1 0 0 0 0 1 0 0 0 0.35 0"/>
<feBlend mode="normal" in2="shape" result="effect1_innerShadow_407_62"/>
<feColorMatrix in="SourceAlpha" type="matrix" values="0 0 0 0 0 0 0 0 0 0 0 0 0 0 0 0 0 0 127 0" result="hardAlpha"/>
<feOffset dx="2" dy="-1"/>
<feGaussianBlur stdDeviation="2"/>
<feComposite in2="hardAlpha" operator="arithmetic" k2="-1" k3="1"/>
<feColorMatrix type="matrix" values="0 0 0 0 0 0 0 0 0 0 0 0 0 0 0 0 0 0 0.25 0"/>
<feBlend mode="normal" in2="effect1_innerShadow_407_62" result="effect2_innerShadow_407_62"/>
</filter>
<filter id="filter1_i_407_62" x="502" y="5" width="104" height="44" filterUnits="userSpaceOnUse" color-interpolation-filters="sRGB">
<feFlood flood-opacity="0" result="BackgroundImageFix"/>
<feBlend mode="normal" in="SourceGraphic" in2="BackgroundImageFix" result="shape"/>
<feColorMatrix in="SourceAlpha" type="matrix" values="0 0 0 0 0 0 0 0 0 0 0 0 0 0 0 0 0 0 127 0" result="hardAlpha"/>
<feOffset dx="-1" dy="-4"/>
<feComposite in2="hardAlpha" operator="arithmetic" k2="-1" k3="1"/>
<feColorMatrix type="matrix" values="0 0 0 0 0 0 0 0 0 0 0 0 0 0 0 0 0 0 0.25 0"/>
<feBlend mode="normal" in2="shape" result="effect1_innerShadow_407_62"/>
</filter>
<filter id="filter2_i_407_62" x="2" y="5" width="104" height="44" filterUnits="userSpaceOnUse" color-interpolation-filters="sRGB">
<feFlood flood-opacity="0" result="BackgroundImageFix"/>
<feBlend mode="normal" in="SourceGraphic" in2="BackgroundImageFix" result="shape"/>
<feColorMatrix in="SourceAlpha" type="matrix" values="0 0 0 0 0 0 0 0 0 0 0 0 0 0 0 0 0 0 127 0" result="hardAlpha"/>
<feOffset dx="-1" dy="-4"/>
<feComposite in2="hardAlpha" operator="arithmetic" k2="-1" k3="1"/>
<feColorMatrix type="matrix" values="0 0 0 0 0 0 0 0 0 0 0 0 0 0 0 0 0 0 0.25 0"/>
<feBlend mode="normal" in2="shape" result="effect1_innerShadow_407_62"/>
</filter>
<filter id="filter3_i_407_62" x="501" y="238" width="49" height="49" filterUnits="userSpaceOnUse" color-interpolation-filters="sRGB">
<feFlood flood-opacity="0" result="BackgroundImageFix"/>
<feBlend mode="normal" in="SourceGraphic" in2="BackgroundImageFix" result="shape"/>
<feColorMatrix in="SourceAlpha" type="matrix" values="0 0 0 0 0 0 0 0 0 0 0 0 0 0 0 0 0 0 127 0" result="hardAlpha"/>
<feOffset dy="1"/>
<feComposite in2="hardAlpha" operator="arithmetic" k2="-1" k3="1"/>
<feColorMatrix type="matrix" values="0 0 0 0 1 0 0 0 0 1 0 0 0 0 1 0 0 0 0.5 0"/>
<feBlend mode="normal" in2="shape" result="effect1_innerShadow_407_62"/>
</filter>
<filter id="filter4_i_407_62" x="563" y="259" width="7" height="7" filterUnits="userSpaceOnUse" color-interpolation-filters="sRGB">
<feFlood flood-opacity="0" result="BackgroundImageFix"/>
<feBlend mode="normal" in="SourceGraphic" in2="BackgroundImageFix" result="shape"/>
<feColorMatrix in="SourceAlpha" type="matrix" values="0 0 0 0 0 0 0 0 0 0 0 0 0 0 0 0 0 0 127 0" result="hardAlpha"/>
<feOffset/>
<feGaussianBlur stdDeviation="0.5"/>
<feComposite in2="hardAlpha" operator="arithmetic" k2="-1" k3="1"/>
<feColorMatrix type="matrix" values="0 0 0 0 1 0 0 0 0 1 0 0 0 0 1 0 0 0 0.5 0"/>
<feBlend mode="normal" in2="shape" result="effect1_innerShadow_407_62"/>
</filter>
</defs>
</svg>
